<?xml version="1.0" standalone="no"?>
<!DOCTYPE svg PUBLIC "-//W3C//DTD SVG 20010904//EN"
 "http://www.w3.org/TR/2001/REC-SVG-20010904/DTD/svg10.dtd">
<svg version="1.0" xmlns="http://www.w3.org/2000/svg"
 width="730.000000pt" height="730.000000pt" viewBox="0 0 730.000000 730.000000"
 preserveAspectRatio="xMidYMid meet">
<g transform="translate(0.000000,730.000000) scale(0.100000,-0.100000)"
fill="#000000" stroke="none">
<path d="M1665 6804 c-224 -33 -411 -88 -592 -174 -541 -258 -917 -741 -1044
-1340 -30 -146 -38 -477 -15 -636 51 -345 189 -663 405 -928 59 -73 3217
-3231 3231 -3231 11 0 3066 3046 3168 3159 248 274 411 620 467 992 20 132 20
415 -1 553 -67 458 -298 874 -649 1169 -275 231 -598 376 -955 428 -173 25
-491 15 -656 -20 -290 -61 -572 -193 -799 -374 -38 -30 -184 -168 -322 -306
l-253 -250 -252 250 c-139 138 -284 276 -323 306 -227 181 -509 312 -799 374
-106 23 -149 26 -351 29 -126 2 -243 1 -260 -1z"/>
</g>
</svg>
